#!OML:ASF F:\VICON\USERDATA\INSTALL\rory3\rory3.ASF
:FULLY-SPECIFIED
:DEGREES
66
root -0.5998929515622754 17.697012936207127 24.5015475344468 4.2451632697001545 3.4066815299461073 0.04397605872791521
lfemur -4.79673922227745 0.03762499752876747 -27.841055273330333
ltibia 49.23238376023995
lfoot 4.132238239258319 -11.045440202942814
ltoes -7.901775234757706
rfemur -24.842833097780268 3.2838989739099302 25.697188368820825
rtibia 103.86344084692348
rfoot 13.312355822994931 -8.88494156439932
rtoes -8.880557803138618
lowerback 16.191821372861924 0.1019447878718609 -1.351612566273292
upperback -0.4026896025120725 -0.11687012660978258 0.5724099270192269
thorax -9.41606240715155 0.838390382740368 0.2079603194694084
lowerneck -19.136864365308988 -3.617157171137328 -3.1315500432469516
upperneck 10.808678386588156 -5.655268152311876 4.046698027384601
head 6.824449978344687 -2.234989693017658 0.785728137249196
lclavicle -6.51637218762625e-16 -4.874153716036839e-15
lhumerus -48.07164545859821 -16.23358120545796 96.40544891557599
lradius 119.85966453735658
lwrist 29.532636822546273
lhand -31.207769185033346 1.054213073106449
lfingers 7.125019999999998
lthumb -4.68903754102143 30.946668710229844
rclavicle -6.488434699394932e-16 -4.861470164690178e-15
rhumerus -53.66548998410031 10.453450287012558 -95.9020336591221
rradius 112.11506570132406
rwrist -14.494078238376314
rhand -18.22435386890969 38.0958531314459
rfingers 7.125019999999998
rthumb 8.020252981313396 8.076904606830277
67
root -0.6202838418789616 17.663701435727226 25.042941402611014 4.321774345875609 3.640196602525582 -0.09655544637049895
lfemur -2.8283436475149255 0.24249376641101705 -27.660698369041306
ltibia 47.33140903796592
lfoot 4.444788964642016 -11.057575579477547
ltoes -7.663692742969361
rfemur -24.202216649401638 3.5703265491342 26.02011710132399
rtibia 88.46351635620253
rfoot 13.13457218668938 -8.647821208037659
rtoes -9.852170852975588
lowerback 15.700246707993854 -0.04719556685787363 -1.678805731064771
upperback -0.4586977332745156 -0.3446383480352281 0.7089036048527875
thorax -9.429841433296593 0.6681977086912158 0.5762984314056797
lowerneck -19.13046751390649 -3.534093781852724 -3.1529516304455187
upperneck 10.69638542057957 -5.362856013664987 3.8934659462932095
head 6.8123025611225225 -2.176615085032238 0.7824250375430268
lclavicle -6.516375346636084e-16 -4.874153877991941e-15
lhumerus -47.11339430363004 -16.449626490210573 96.08473658628951
lradius 119.97547228426757
lwrist 29.80015420105039
lhand -31.194867522047765 1.0517778313195245
lfingers 7.125019999999998
lthumb -4.671702955899389 30.956737461550315
rclavicle -6.488434285193088e-16 -4.861470136386261e-15
rhumerus -53.42069066298934 10.42648284870745 -95.79724429322324
rradius 111.68546287943667
rwrist -14.18419234816092
rhand -18.23097532507013 38.11832943977767
rfingers 7.125019999999998
rthumb 8.035165601625744 8.070336777435122
68
root -0.6436494126216661 17.625414145468874 25.586924106517042 4.367637620525308 3.7124653195818054 -0.2582967047821416
lfemur -1.7669258382330248 -0.06628724590956558 -27.359811472476157
ltibia 44.30201477659878
lfoot 6.363062680081008 -11.129290295948035
ltoes -7.757243626252427
rfemur -23.330606934411925 3.204899580891892 26.822238459920825
rtibia 69.25961681774437
rfoot 12.852742556333338 -8.652974704378394
rtoes -9.897130380192142
lowerback 15.291754192931494 -0.1679503844563902 -1.8776300816550258
upperback -0.5104592553250398 -0.5014267356404306 0.864894317358829
thorax -9.376820632675988 0.49764170372709593 0.9589402885162828
lowerneck -19.04608788266442 -3.4523313114038494 -3.1709053674113505
upperneck 10.58940139518148 -5.139340843607012 3.7267136947159054
head 6.802353407164679 -2.149264472365622 0.78659593906058
lclavicle -6.516378486429856e-16 -4.874154069829211e-15
lhumerus -46.559073734479796 -16.31934655935551 95.8659092828624
lradius 119.7637225678796
lwrist 30.176029432219895
lhand -31.174872590684153 1.0450479117708495
lfingers 7.125019999999998
lthumb -4.6441023622052215 30.96809735089701
rclavicle -6.488434371606952e-16 -4.861470141974398e-15
rhumerus -52.71536202877012 10.790753781422133 -95.9757283621321
rradius 111.25469868670277
rwrist -13.649661011119232
rhand -18.231275396845366 38.12263917595617
rfingers 7.125019999999998
rthumb 8.061014740910215 8.077431283588082
69
root -0.6689747326947074 17.583865721059983 26.098394310184293 4.388758434860624 3.6448352482902235 -0.4535047894315254
lfemur -1.4255331274695546 -0.7472867948320971 -26.92993650917071
ltibia 40.667172546900495
lfoot 8.617900047505316 -11.374644987050633
ltoes -7.761436505097459
rfemur -22.23235591152217 3.1076845071756902 27.649485175076006
rtibia 49.00169947609746
rfoot 12.73172887775855 -8.745416571453196
rtoes -8.739488858012788
lowerback 15.033872473389781 -0.26282378239752346 -1.9122728124872324
upperback -0.5451826288127682 -0.602011541034576 1.0391118383896263
thorax -9.263336240384257 0.33447599326802435 1.3430368254069003
lowerneck -18.907654098260394 -3.4051814188441725 -3.1962593585607944
upperneck 10.585295495045715 -4.980818347292468 3.58340672995892
head 6.793801047327011 -2.154438516373743 0.7948479087665627
lclavicle -6.516378151313935e-16 -4.874154088372455e-15
lhumerus -46.86900690378855 -16.0335807845143 95.7714238473537
lradius 119.27116936391744
lwrist 30.71034361384276
lhand -31.14000031233695 1.047546155788645
lfingers 7.125019999999998
lthumb -4.614859974908758 30.973531953214664
rclavicle -6.488433773208111e-16 -4.861470099880442e-15
rhumerus -51.85437561273195 11.246739489305345 -96.45942408553434
rradius 110.64803871431474
rwrist -12.925669050582737
rhand -18.227480972359874 38.098600578715256
rfingers 7.125019999999998
rthumb 8.071938553078022 8.05393504160195
70
root -0.6953675842222389 17.540541682479784 26.580335006439693 4.385882819661493 3.4437622483129395 -0.6749656237899615
lfemur -1.9067248322838317 -1.7166275886010784 -26.45379977844917
ltibia 37.7226863151147
lfoot 9.032323047277385 -11.685834299058918
ltoes -7.579303109810285
rfemur -21.06934087817087 3.1939368314811336 28.35923797675128
rtibia 32.663625791788206
rfoot 13.010978606678194 -8.909262576460085
rtoes -5.025871948994144
lowerback 14.889685222742658 -0.33793850028840355 -1.787346407756211
upperback -0.5527868147416226 -0.641106356435441 1.2482290256489423
thorax -9.089685001085446 0.1896724397449644 1.7248891449104904
lowerneck -18.70470561863446 -3.383841519189588 -3.2170127386681826
upperneck 10.6198008093909 -4.878180305777491 3.4697215276731668
head 6.788304388404903 -2.1806661257668796 0.8083248726304351
lclavicle -6.51638010895453e-16 -4.874154214800919e-15
lhumerus -48.02143150124259 -15.747272935494951 95.70073671763635
lradius 118.55982144689908
lwrist 31.229022212048633
lhand -31.10865430197959 1.0365444785019202
lfingers 7.125019999999998
lthumb -4.596625594131233 30.95672222801125
rclavicle -6.488434038670949e-16 -4.86147012041671e-15
rhumerus -50.83376135937796 11.752132574775038 -96.90233719080514
rradius 109.73049389636284
rwrist -12.054435067286182
rhand -18.220528789564298 38.05806174404642
rfingers 7.125019999999998
rthumb 8.054851657124726 7.997925688967486
71
root -0.7203937561468181 17.50444689557177 27.11720247275521 4.370133217028875 3.15919004045878 -0.9036717260871271
lfemur -3.13879017973097 -2.2974125248025903 -25.528660960271758
ltibia 36.896424180301466
lfoot 8.409796339822796 -11.820334984267118
ltoes -7.3198878308828315
rfemur -19.906285919008237 3.444810300680768 28.91510252266737
rtibia 25.99876265648036
rfoot 12.993146646765036 -8.966573306729767
rtoes 1.0202570847491854
lowerback 14.81724966242583 -0.3929832882896882 -1.4890111489435744
upperback -0.5317081926534786 -0.6208464235018162 1.501517506242345
thorax -8.887240744608158 0.06013598643031953 2.0744837555781572
lowerneck -18.486998003743366 -3.3952162352454973 -3.233305401744063
upperneck 10.59839014605172 -4.830208103090133 3.4044382053478093
head 6.7836419415737 -2.2147765619004938 0.8239285925915163
lclavicle -6.516379688401665e-16 -4.874154194045937e-15
lhumerus -49.633538568441246 -15.578256578209697 95.64071529574731
lradius 117.69561510159649
lwrist 31.58207702357631
lhand -31.098358663038326 0.9892720640050465
lfingers 7.125019999999998
lthumb -4.596843826774634 30.902124575759373
rclavicle -6.488434031141782e-16 -4.8614701200375084e-15
rhumerus -49.98788286143551 12.185937485060998 -97.41071691025918
rradius 108.41255881235924
rwrist -11.11353152357449
rhand -18.216672119229273 38.00155160759073
rfingers 7.125019999999998
rthumb 8.027713333639388 7.966926388585496
72
root -0.7430743582910124 17.490533618033012 27.74391950491305 4.348847641774295 2.9013603108017243 -1.1618763120306905
lfemur -5.42800299029123 -1.948853982065924 -24.225571596530138
ltibia 38.63835852951546
lfoot 9.837076096561193 -12.119800011257981
ltoes -7.245962233664283
rfemur -18.870847690546444 3.617146553602594 29.370973065971956
rtibia 29.908243684099865
rfoot 13.125958608435488 -8.645041472767383
rtoes 6.777325560846881
lowerback 14.798109267683769 -0.43135475505415355 -1.0513256379587883
upperback -0.5014162298558685 -0.5626893998052859 1.790712065403015
thorax -8.686999123389134 -0.053139761437053956 2.376247079448202
lowerneck -18.279627449654857 -3.4468692564944616 -3.252620815517563
upperneck 10.467071864330658 -4.821500203885069 3.378195075013479
head 6.7723413633061895 -2.247879462208934 0.8335847639869458
lclavicle -6.516380347428766e-16 -4.874154216419131e-15
lhumerus -51.02888710356728 -15.388191830824123 95.71047588517688
lradius 116.73713046302709
lwrist 31.652240715546814
lhand -31.10230446304607 0.917924497529565
lfingers 7.125019999999998
lthumb -4.598125728409863 30.83101006190531
rclavicle -6.488433983332568e-16 -4.861470117008472e-15
rhumerus -49.06878254533942 12.728136897333409 -97.75101044844806
rradius 106.70586066377528
rwrist -10.209716496074336
rhand -18.222376115151725 37.91935167810037
rfingers 7.125019999999998
rthumb 8.003887978924329 7.9708068863458825
